<svg width="23" height="22" viewBox="0 0 23 22" fill="none" xmlns="http://www.w3.org/2000/svg">
<path d="M15.766 1.95024C16.9948 1.95377 18.1723 2.42506 19.0411 3.26118C19.91 4.09729 20.3998 5.2303 20.4035 6.41274V15.3368C20.3998 16.5192 19.91 17.6522 19.0411 18.4884C18.1723 19.3245 16.9948 19.7958 15.766 19.7993H6.49213C5.26333 19.7958 4.08591 19.3245 3.21701 18.4884C2.34812 17.6522 1.85835 16.5192 1.85468 15.3368V6.41274C1.85835 5.2303 2.34812 4.09729 3.21701 3.26118C4.08591 2.42506 5.26333 1.95377 6.49213 1.95024H15.766ZM15.766 0.165527H6.49213C2.92138 0.165527 0 2.9767 0 6.41274V15.3368C0 18.7728 2.92138 21.584 6.49213 21.584H15.766C19.3368 21.584 22.2582 18.7728 22.2582 15.3368V6.41274C22.2582 2.9767 19.3368 0.165527 15.766 0.165527Z" fill="#FF8C92"/>
<path d="M17.1571 6.41315C16.8819 6.41315 16.613 6.33464 16.3842 6.18755C16.1554 6.04045 15.9771 5.83138 15.8718 5.58678C15.7665 5.34217 15.739 5.07301 15.7927 4.81334C15.8464 4.55366 15.9788 4.31514 16.1734 4.12792C16.368 3.94071 16.6158 3.81321 16.8857 3.76156C17.1555 3.70991 17.4352 3.73642 17.6894 3.83774C17.9436 3.93906 18.1609 4.11064 18.3138 4.33078C18.4666 4.55092 18.5482 4.80973 18.5482 5.07449C18.5486 5.2504 18.5129 5.42464 18.4431 5.58722C18.3733 5.74981 18.2709 5.89753 18.1416 6.02191C18.0124 6.14629 17.8589 6.24488 17.6899 6.31202C17.5209 6.37916 17.3399 6.41353 17.1571 6.41315ZM11.129 7.30527C11.8627 7.30527 12.58 7.51464 13.1901 7.90691C13.8002 8.29917 14.2757 8.85671 14.5565 9.50903C14.8372 10.1613 14.9107 10.8791 14.7676 11.5716C14.6244 12.2641 14.2711 12.9002 13.7523 13.3995C13.2334 13.8987 12.5724 14.2387 11.8528 14.3765C11.1331 14.5142 10.3872 14.4435 9.70929 14.1733C9.03141 13.9031 8.452 13.4456 8.04436 12.8585C7.63672 12.2714 7.41914 11.5812 7.41914 10.8752C7.42019 9.92869 7.81138 9.02125 8.50689 8.35199C9.2024 7.68272 10.1454 7.30628 11.129 7.30527ZM11.129 5.52055C10.0284 5.52055 8.95259 5.8346 8.0375 6.42297C7.12242 7.01134 6.4092 7.84762 5.98803 8.82605C5.56686 9.80448 5.45667 10.8811 5.67138 11.9198C5.88609 12.9585 6.41606 13.9126 7.19427 14.6615C7.97249 15.4103 8.96399 15.9203 10.0434 16.1269C11.1228 16.3335 12.2417 16.2275 13.2585 15.8222C14.2752 15.4169 15.1443 14.7306 15.7557 13.85C16.3672 12.9695 16.6935 11.9342 16.6935 10.8752C16.6935 9.45504 16.1073 8.09307 15.0637 7.08889C14.0202 6.0847 12.6048 5.52055 11.129 5.52055Z" fill="#FF8C92"/>
</svg>
