<svg width="22" height="18" viewBox="0 0 22 18" fill="none" xmlns="http://www.w3.org/2000/svg">
<path d="M21.7294 2.32631C20.924 2.67602 20.0718 2.90641 19.1998 3.01021C20.1162 2.47399 20.8054 1.6221 21.138 0.614324C20.2716 1.12059 19.3253 1.4758 18.3396 1.66476C17.9246 1.23007 17.4254 0.884265 16.8724 0.64836C16.3194 0.412455 15.7242 0.291378 15.123 0.292488C12.6887 0.292488 10.7187 2.23244 10.7187 4.62386C10.717 4.9565 10.7551 5.28814 10.8323 5.61172C9.08679 5.52994 7.37753 5.08497 5.81393 4.30527C4.25032 3.52556 2.8668 2.4283 1.75188 1.08367C1.36074 1.74259 1.15388 2.4944 1.15293 3.26053C1.15293 4.76243 1.93707 6.09 3.12111 6.86777C2.4196 6.85113 1.73246 6.6656 1.11804 6.32691V6.38055C1.11804 8.48142 2.6389 10.2292 4.65182 10.627C4.27329 10.7278 3.88323 10.7789 3.49148 10.779C3.21351 10.7795 2.93618 10.7525 2.66351 10.6985C3.2231 12.4194 4.85177 13.671 6.78103 13.7068C5.21336 14.9141 3.28868 15.5666 1.30949 15.5618C0.958176 15.5613 0.60719 15.5404 0.258301 15.4992C2.27174 16.784 4.6122 17.4636 7.00111 17.4571C15.1136 17.4571 19.5456 10.855 19.5456 5.12896C19.5456 4.94123 19.5407 4.75349 19.5317 4.57022C20.3919 3.95876 21.1361 3.19889 21.7294 2.32631Z" fill="#FF8C92"/>
</svg>
