<svg width="235" height="54" viewBox="0 0 235 54" fill="none" xmlns="http://www.w3.org/2000/svg">
<path d="M87.2852 27.4492C87.2852 32.1497 85.944 35.75 83.2617 38.25C80.5924 40.75 76.7318 42 71.6797 42H63.5938V13.4453H72.5586C77.2201 13.4453 80.8398 14.6758 83.418 17.1367C85.9961 19.5977 87.2852 23.0352 87.2852 27.4492ZM80.9961 27.6055C80.9961 21.4727 78.2878 18.4062 72.8711 18.4062H69.6484V37H72.2461C78.0794 37 80.9961 33.8685 80.9961 27.6055ZM101.777 23.9922C100.514 23.9922 99.5247 24.3958 98.8086 25.2031C98.0924 25.9974 97.6823 27.1302 97.5781 28.6016H105.938C105.911 27.1302 105.527 25.9974 104.785 25.2031C104.043 24.3958 103.04 23.9922 101.777 23.9922ZM102.617 42.3906C99.1016 42.3906 96.3542 41.4206 94.375 39.4805C92.3958 37.5404 91.4062 34.793 91.4062 31.2383C91.4062 27.5794 92.3177 24.7539 94.1406 22.7617C95.9766 20.7565 98.5091 19.7539 101.738 19.7539C104.824 19.7539 107.227 20.6328 108.945 22.3906C110.664 24.1484 111.523 26.5768 111.523 29.6758V32.5664H97.4414C97.5065 34.2591 98.0078 35.5807 98.9453 36.5312C99.8828 37.4818 101.198 37.957 102.891 37.957C104.206 37.957 105.449 37.8203 106.621 37.5469C107.793 37.2734 109.017 36.8372 110.293 36.2383V40.8477C109.251 41.3685 108.138 41.7526 106.953 42C105.768 42.2604 104.323 42.3906 102.617 42.3906ZM121.562 42L113.242 20.1641H119.473L123.691 32.6055C124.16 34.181 124.453 35.6719 124.57 37.0781H124.688C124.753 35.8281 125.046 34.3372 125.566 32.6055L129.766 20.1641H135.996L127.676 42H121.562ZM139.609 42V13.4453H145.664V37H157.246V42H139.609ZM175.625 42L174.473 39.0312H174.316C173.314 40.2943 172.279 41.1732 171.211 41.668C170.156 42.1497 168.776 42.3906 167.07 42.3906C164.974 42.3906 163.32 41.7917 162.109 40.5938C160.911 39.3958 160.312 37.6901 160.312 35.4766C160.312 33.1589 161.12 31.4531 162.734 30.3594C164.362 29.2526 166.81 28.6406 170.078 28.5234L173.867 28.4062V27.4492C173.867 25.2357 172.734 24.1289 170.469 24.1289C168.724 24.1289 166.673 24.6562 164.316 25.7109L162.344 21.6875C164.857 20.3724 167.643 19.7148 170.703 19.7148C173.633 19.7148 175.879 20.3529 177.441 21.6289C179.004 22.9049 179.785 24.8451 179.785 27.4492V42H175.625ZM173.867 31.8828L171.562 31.9609C169.831 32.013 168.542 32.3255 167.695 32.8984C166.849 33.4714 166.426 34.3438 166.426 35.5156C166.426 37.1953 167.389 38.0352 169.316 38.0352C170.697 38.0352 171.797 37.638 172.617 36.8438C173.451 36.0495 173.867 34.9948 173.867 33.6797V31.8828ZM206.094 42H200.137V29.2461C200.137 27.6706 199.857 26.4922 199.297 25.7109C198.737 24.9167 197.845 24.5195 196.621 24.5195C194.954 24.5195 193.75 25.0794 193.008 26.1992C192.266 27.306 191.895 29.1484 191.895 31.7266V42H185.938V20.1641H190.488L191.289 22.957H191.621C192.285 21.9023 193.197 21.1081 194.355 20.5742C195.527 20.0273 196.855 19.7539 198.34 19.7539C200.879 19.7539 202.806 20.444 204.121 21.8242C205.436 23.1914 206.094 25.1706 206.094 27.7617V42ZM219.141 42.3906C216.576 42.3906 214.557 41.3945 213.086 39.4023C211.628 37.4102 210.898 34.6497 210.898 31.1211C210.898 27.5404 211.641 24.7539 213.125 22.7617C214.622 20.7565 216.68 19.7539 219.297 19.7539C222.044 19.7539 224.141 20.8216 225.586 22.957H225.781C225.482 21.3294 225.332 19.8776 225.332 18.6016V11.6094H231.309V42H226.738L225.586 39.168H225.332C223.978 41.3164 221.914 42.3906 219.141 42.3906ZM221.23 37.6445C222.754 37.6445 223.867 37.2018 224.57 36.3164C225.286 35.431 225.677 33.9271 225.742 31.8047V31.1602C225.742 28.8164 225.378 27.1367 224.648 26.1211C223.932 25.1055 222.76 24.5977 221.133 24.5977C219.805 24.5977 218.77 25.1641 218.027 26.2969C217.298 27.4167 216.934 29.0508 216.934 31.1992C216.934 33.3477 217.305 34.9622 218.047 36.043C218.789 37.1107 219.85 37.6445 221.23 37.6445Z" fill="#263238"/>
<path d="M23.5 2.73205C25.3564 1.66025 27.6436 1.66025 29.5 2.73205L46.4497 12.5179C48.3061 13.5897 49.4497 15.5705 49.4497 17.7141V37.2859C49.4497 39.4295 48.3061 41.4103 46.4497 42.4821L29.5 52.2679C27.6436 53.3397 25.3564 53.3397 23.5 52.2679L6.55033 42.4821C4.69392 41.4103 3.55033 39.4295 3.55033 37.2859V17.7141C3.55033 15.5705 4.69392 13.5897 6.55033 12.5179L23.5 2.73205Z" fill="#263238"/>
<path d="M26.3076 15L17.9999 23.3077L26.3076 31.6154" stroke="white" stroke-width="3.46154" stroke-miterlimit="10" stroke-linecap="square"/>
<path d="M27 23L35.3077 31.3077L27 39.6154" stroke="white" stroke-width="3.46154" stroke-miterlimit="10" stroke-linecap="square"/>
</svg>
